<svg xmlns="http://www.w3.org/2000/svg" width="586.742" height="73.85" viewBox="0 0 586.742 73.85">
  <g id="mena_real_estate" transform="translate(21625.023 14775.85)">
    <path id="Path_31875" data-name="Path 31875" d="M-142.023,0V-73.729h22.28l13.378,50.293,13.227-50.293h22.33V0H-84.639V-58.038L-99.274,0h-14.333l-14.585-58.038V0Zm84.456,0V-73.729H-2.9v12.473H-42.681v16.345H-5.665v12.422H-42.681v20.067h41.19V0ZM9.739,0V-73.729H24.223L54.4-24.493V-73.729H68.229V0H53.292L23.569-48.08V0ZM148.913,0H132.719l-6.437-16.748H96.81L90.725,0H74.933L103.65-73.729h15.742ZM121.5-29.17,111.345-56.529,101.387-29.17Z" transform="translate(-21483 -14702)" fill="#fff"/>
    <path id="Path_31874" data-name="Path 31874" d="M3,0V-29.349H14.475a21.347,21.347,0,0,1,6.837.791,6.744,6.744,0,0,1,3.413,2.813,8.455,8.455,0,0,1,1.281,4.625,7.835,7.835,0,0,1-1.942,5.455,9.326,9.326,0,0,1-5.806,2.713,13.825,13.825,0,0,1,3.173,2.462,33.448,33.448,0,0,1,3.373,4.765L28.389,0H21.3L17.018-6.386A41.426,41.426,0,0,0,13.895-10.7a4.547,4.547,0,0,0-1.782-1.221,9.767,9.767,0,0,0-2.983-.33h-.2V0ZM8.929-16.937h3.384a22.64,22.64,0,0,0,5.325-.36A3.192,3.192,0,0,0,19.3-18.538a3.821,3.821,0,0,0,.6-2.2,3.519,3.519,0,0,0-.791-2.392,3.629,3.629,0,0,0-2.232-1.151q-.721-.1-4.324-.1H8.929ZM31.977,0V-29.349H53.738v4.965H37.9v6.506H52.637v4.945H37.9v7.988H54.3V0Zm53.2,0H78.728L76.166-6.667H64.434L62.012,0H55.726L67.157-29.349h6.266ZM74.264-11.611,70.22-22.5,66.256-11.611ZM87.863,0V-29.108h5.926V-4.945h14.734V0Zm34.3,0V-29.349h21.761v4.965H128.093v6.506h14.734v4.945H128.093v7.988h16.4V0ZM147.4-9.549l5.766-.561a7.034,7.034,0,0,0,2.112,4.264,6.386,6.386,0,0,0,4.294,1.361A6.6,6.6,0,0,0,163.883-5.7a3.6,3.6,0,0,0,1.451-2.833,2.672,2.672,0,0,0-.611-1.772,4.88,4.88,0,0,0-2.132-1.271q-1.041-.36-4.745-1.281-4.765-1.181-6.687-2.9a7.637,7.637,0,0,1-2.7-5.906,7.545,7.545,0,0,1,1.271-4.194,7.959,7.959,0,0,1,3.664-2.973,14.683,14.683,0,0,1,5.776-1.021q5.525,0,8.318,2.422a8.55,8.55,0,0,1,2.933,6.466l-5.926.26a5.032,5.032,0,0,0-1.632-3.253,5.974,5.974,0,0,0-3.754-.991,6.771,6.771,0,0,0-4.044,1.061,2.138,2.138,0,0,0-.941,1.822A2.254,2.254,0,0,0,155-20.28q1.121.941,5.445,1.962a28.736,28.736,0,0,1,6.4,2.112,8.243,8.243,0,0,1,3.243,2.983,8.724,8.724,0,0,1,1.171,4.675,8.643,8.643,0,0,1-1.4,4.725A8.4,8.4,0,0,1,165.9-.551,16.623,16.623,0,0,1,159.509.521q-5.565,0-8.548-2.573A11.19,11.19,0,0,1,147.4-9.549ZM182.237,0V-24.384h-8.708v-4.965h23.323v4.965h-8.688V0Zm41.246,0h-6.446l-2.562-6.667H202.743L200.32,0h-6.286l11.431-29.349h6.266ZM212.572-11.611,208.528-22.5l-3.964,10.891ZM229.574,0V-24.384h-8.708v-4.965h23.323v4.965H235.5V0ZM247.4,0V-29.349h21.761v4.965H253.323v6.506h14.734v4.945H253.323v7.988h16.4V0ZM1.481,33.451l5.766-.561a7.034,7.034,0,0,0,2.112,4.264,6.386,6.386,0,0,0,4.294,1.361A6.6,6.6,0,0,0,17.968,37.3a3.6,3.6,0,0,0,1.451-2.833,2.672,2.672,0,0,0-.611-1.772,4.88,4.88,0,0,0-2.132-1.271q-1.041-.36-4.745-1.281-4.765-1.181-6.687-2.9a7.637,7.637,0,0,1-2.7-5.906,7.544,7.544,0,0,1,1.271-4.194,7.959,7.959,0,0,1,3.664-2.973,14.683,14.683,0,0,1,5.776-1.021q5.525,0,8.318,2.422A8.55,8.55,0,0,1,24.5,22.04l-5.926.26a5.032,5.032,0,0,0-1.632-3.253,5.974,5.974,0,0,0-3.754-.991,6.771,6.771,0,0,0-4.044,1.061,2.138,2.138,0,0,0-.941,1.822,2.254,2.254,0,0,0,.881,1.782q1.121.941,5.445,1.962a28.736,28.736,0,0,1,6.4,2.112,8.243,8.243,0,0,1,3.243,2.983,9.239,9.239,0,0,1-.23,9.4,8.4,8.4,0,0,1-3.964,3.273,16.623,16.623,0,0,1-6.386,1.071q-5.565,0-8.548-2.573A11.19,11.19,0,0,1,1.481,33.451Zm27.032-4.945a18.666,18.666,0,0,1,1.341-7.527,13.813,13.813,0,0,1,2.733-4.024,11.426,11.426,0,0,1,3.794-2.643,16.112,16.112,0,0,1,6.326-1.161,13.78,13.78,0,0,1,10.38,4.024q3.894,4.024,3.894,11.191,0,7.107-3.864,11.121A13.673,13.673,0,0,1,42.787,43.5q-6.546,0-10.41-3.994T28.513,28.506Zm6.106-.2q0,4.985,2.3,7.557a7.915,7.915,0,0,0,11.661.02q2.272-2.552,2.272-7.657,0-5.045-2.212-7.527a7.485,7.485,0,0,0-5.876-2.482,7.535,7.535,0,0,0-5.906,2.512Q34.619,23.241,34.619,28.306ZM61.151,43V13.892h5.926V38.055H81.811V43ZM85.38,13.651h5.926v15.9a32.972,32.972,0,0,0,.22,4.9,4.753,4.753,0,0,0,1.812,2.893,6.312,6.312,0,0,0,3.914,1.091,5.972,5.972,0,0,0,3.8-1.031,4.073,4.073,0,0,0,1.542-2.532,33.018,33.018,0,0,0,.26-4.985V13.651h5.926V29.066a39.609,39.609,0,0,1-.48,7.467,8.265,8.265,0,0,1-1.772,3.684,8.952,8.952,0,0,1-3.453,2.392,15.022,15.022,0,0,1-5.646.891,16.254,16.254,0,0,1-6.376-.971,9.118,9.118,0,0,1-3.433-2.522,8.086,8.086,0,0,1-1.662-3.253,35.644,35.644,0,0,1-.581-7.447ZM121.02,43V18.616h-8.708V13.651h23.323v4.965h-8.688V43Zm17.643,0V13.651h5.926V43Zm9.755-14.494a18.666,18.666,0,0,1,1.341-7.527,13.812,13.812,0,0,1,2.733-4.024,11.426,11.426,0,0,1,3.794-2.643,16.112,16.112,0,0,1,6.326-1.161,13.78,13.78,0,0,1,10.38,4.024q3.894,4.024,3.894,11.191,0,7.107-3.864,11.121a13.673,13.673,0,0,1-10.33,4.014q-6.546,0-10.41-3.994T148.418,28.506Zm6.106-.2q0,4.985,2.3,7.557a7.915,7.915,0,0,0,11.661.02q2.272-2.552,2.272-7.657,0-5.045-2.212-7.527a8.2,8.2,0,0,0-11.781.03Q154.524,23.241,154.524,28.306ZM180.956,43V13.651h5.766l12.012,19.6v-19.6h5.505V43h-5.946L186.461,23.861V43Zm27.432-9.549,5.766-.561a7.034,7.034,0,0,0,2.112,4.264,6.386,6.386,0,0,0,4.294,1.361,6.6,6.6,0,0,0,4.314-1.211,3.6,3.6,0,0,0,1.451-2.833,2.672,2.672,0,0,0-.611-1.772,4.88,4.88,0,0,0-2.132-1.271q-1.041-.36-4.745-1.281-4.765-1.181-6.687-2.9a7.637,7.637,0,0,1-2.7-5.906,7.545,7.545,0,0,1,1.271-4.194,7.959,7.959,0,0,1,3.664-2.973,14.683,14.683,0,0,1,5.776-1.021q5.525,0,8.318,2.422a8.55,8.55,0,0,1,2.933,6.466l-5.926.26a5.032,5.032,0,0,0-1.632-3.253,5.974,5.974,0,0,0-3.754-.991,6.771,6.771,0,0,0-4.044,1.061,2.138,2.138,0,0,0-.941,1.822A2.254,2.254,0,0,0,216,22.72q1.121.941,5.445,1.962a28.736,28.736,0,0,1,6.4,2.112,8.243,8.243,0,0,1,3.243,2.983,9.239,9.239,0,0,1-.23,9.4,8.4,8.4,0,0,1-3.964,3.273,16.623,16.623,0,0,1-6.386,1.071q-5.565,0-8.548-2.573A11.19,11.19,0,0,1,208.388,33.451Z" transform="translate(-21308 -14746)" fill="#fff"/>
  </g>
</svg>
